<svg width="25" height="24" viewBox="0 0 25 24" fill="none" xmlns="http://www.w3.org/2000/svg">
<path fill-rule="evenodd" clip-rule="evenodd" d="M13.2202 3.96967C13.5131 3.67678 13.9879 3.67678 14.2808 3.96967L21.7808 11.4697C21.9215 11.6103 22.0005 11.8011 22.0005 12C22.0005 12.1989 21.9215 12.3897 21.7808 12.5303L14.2808 20.0303C13.9879 20.3232 13.5131 20.3232 13.2202 20.0303C12.9273 19.7374 12.9273 19.2626 13.2202 18.9697L19.4398 12.75H3.25049C2.83627 12.75 2.50049 12.4142 2.50049 12C2.50049 11.5858 2.83627 11.25 3.25049 11.25H19.4398L13.2202 5.03033C12.9273 4.73744 12.9273 4.26256 13.2202 3.96967Z" fill="#009A9D"/>
</svg>
