<svg width="32" height="32" viewBox="0 0 32 32" fill="none" xmlns="http://www.w3.org/2000/svg">
<g clip-path="url(#clip0_79_228)">
<path d="M27.7 18.6751C27.9073 17.7648 28.008 16.8336 28 15.9001C27.95 9.28755 22.475 3.93755 15.875 4.00005C13.0554 4.02979 10.3363 5.05147 8.19484 6.88586C6.05337 8.72025 4.62626 11.2502 4.16391 14.0317C3.70155 16.8133 4.23349 19.6689 5.66639 22.0974C7.09928 24.5259 9.34161 26.3723 12 27.3126C12.4522 27.4755 12.937 27.5268 13.4133 27.4624C13.8896 27.3979 14.3433 27.2194 14.7359 26.9421C15.1285 26.6649 15.4485 26.2969 15.6685 25.8696C15.8886 25.4423 16.0023 24.9682 16 24.4876V24.0001C15.9983 23.6056 16.0748 23.2148 16.225 22.85C16.3751 22.4853 16.596 22.154 16.875 21.875C17.1539 21.5961 17.4852 21.3752 17.85 21.225C18.2147 21.0749 18.6055 20.9984 19 21.0001H24.775C25.4536 21.0005 26.1124 20.7708 26.6436 20.3485C27.1749 19.9262 27.5473 19.3363 27.7 18.6751Z" fill="#FFF8DC" stroke="#32343B" stroke-width="3" stroke-linecap="round" stroke-linejoin="round"/>
<path d="M11.875 24.5C12.9796 24.5 13.875 23.6046 13.875 22.5C13.875 21.3954 12.9796 20.5 11.875 20.5C10.7704 20.5 9.875 21.3954 9.875 22.5C9.875 23.6046 10.7704 24.5 11.875 24.5Z" fill="#FF0000"/>
<path d="M8.75 19.5C9.85457 19.5 10.75 18.6046 10.75 17.5C10.75 16.3954 9.85457 15.5 8.75 15.5C7.64543 15.5 6.75 16.3954 6.75 17.5C6.75 18.6046 7.64543 19.5 8.75 19.5Z" fill="#FFFF00"/>
<path d="M10 13.25C11.1046 13.25 12 12.3546 12 11.25C12 10.1454 11.1046 9.25 10 9.25C8.89543 9.25 8 10.1454 8 11.25C8 12.3546 8.89543 13.25 10 13.25Z" fill="#008000"/>
<path d="M15.625 10.75C16.7296 10.75 17.625 9.85457 17.625 8.75C17.625 7.64543 16.7296 6.75 15.625 6.75C14.5204 6.75 13.625 7.64543 13.625 8.75C13.625 9.85457 14.5204 10.75 15.625 10.75Z" fill="#00FFFF"/>
<path d="M21.25 13.25C22.3546 13.25 23.25 12.3546 23.25 11.25C23.25 10.1454 22.3546 9.25 21.25 9.25C20.1454 9.25 19.25 10.1454 19.25 11.25C19.25 12.3546 20.1454 13.25 21.25 13.25Z" fill="#0000FF"/>
<path d="M23.75 18.25C24.8546 18.25 25.75 17.3546 25.75 16.25C25.75 15.1454 24.8546 14.25 23.75 14.25C22.6454 14.25 21.75 15.1454 21.75 16.25C21.75 17.3546 22.6454 18.25 23.75 18.25Z" fill="#FF00FF"/>
</g>
<defs>
<clipPath id="clip0_79_228">
<rect width="32" height="32" fill="white"/>
</clipPath>
</defs>
</svg>
